<?xml version="1.0" standalone="no"?>
<!DOCTYPE svg PUBLIC "-//W3C//DTD SVG 20010904//EN"
 "http://www.w3.org/TR/2001/REC-SVG-20010904/DTD/svg10.dtd">
<svg version="1.0" xmlns="http://www.w3.org/2000/svg"
 width="512.000000pt" height="512.000000pt" viewBox="0 0 512.000000 512.000000"
 preserveAspectRatio="xMidYMid meet">

<g transform="translate(0.000000,512.000000) scale(0.100000,-0.100000)"
fill="#e74c3c" stroke="none">
<path d="M3431 4796 c-6 -7 -24 -51 -40 -97 -32 -92 -30 -118 13 -134 37 -13
58 12 96 114 28 78 29 85 15 107 -17 27 -65 33 -84 10z"/>
<path d="M2240 4790 c-209 -26 -387 -115 -540 -269 -182 -184 -311 -451 -366
-756 -22 -120 -24 -328 -5 -433 7 -40 11 -75 9 -77 -2 -2 -43 12 -91 31 -140
56 -264 84 -377 84 -185 0 -325 -55 -445 -175 -58 -57 -80 -89 -122 -175 -74
-151 -77 -169 -77 -375 -1 -206 10 -261 75 -385 74 -142 177 -258 530 -596 81
-77 155 -155 165 -174 16 -32 18 -66 19 -340 1 -252 4 -316 18 -368 54 -201
159 -302 382 -367 108 -31 476 -79 725 -95 364 -22 905 -12 1120 21 270 41
331 73 361 191 14 55 20 503 9 711 l-5 98 142 58 c505 208 841 488 1027 858
97 195 128 390 88 551 -30 119 -117 292 -190 378 -143 169 -343 269 -558 281
-184 10 -317 -30 -507 -153 -77 -50 -114 -69 -119 -61 -4 7 -8 48 -8 92 -1
322 -80 747 -145 777 -19 9 -30 7 -50 -6 -31 -21 -31 -36 0 -133 38 -115 64
-278 75 -468 16 -269 25 -332 46 -356 49 -54 92 -46 228 43 178 117 292 158
440 158 106 0 192 -21 296 -72 69 -34 102 -59 175 -133 74 -73 98 -106 132
-175 52 -108 73 -194 73 -302 0 -399 -339 -737 -1075 -1069 l-178 -80 -31 29
c-52 47 -64 54 -144 82 -42 15 -77 32 -77 38 0 20 54 70 171 160 149 113 274
239 274 276 0 30 -40 61 -67 52 -10 -3 -44 -35 -75 -70 -32 -35 -120 -111
-196 -169 -141 -107 -189 -153 -217 -208 -11 -21 -21 -28 -33 -25 -27 8 -364
56 -395 56 -28 0 -29 1 -22 43 16 93 59 202 161 401 115 225 154 323 174 427
14 77 5 105 -36 115 -37 9 -61 -18 -69 -79 -12 -93 -55 -198 -166 -413 -60
-116 -118 -238 -130 -270 -15 -45 -49 -187 -49 -208 0 -2 -118 -6 -262 -10
-145 -4 -284 -9 -309 -12 l-46 -6 -6 79 c-3 44 -22 150 -42 235 -19 86 -35
169 -35 185 0 58 -43 88 -91 63 -29 -16 -25 -71 21 -283 22 -102 40 -210 40
-240 l0 -56 -57 -11 c-32 -6 -96 -19 -143 -28 l-85 -17 -65 69 c-80 84 -134
160 -207 291 -69 123 -79 135 -113 135 -32 0 -50 -17 -50 -45 0 -49 151 -299
248 -412 l62 -71 -33 -8 c-46 -10 -136 -51 -172 -79 l-32 -24 -251 245 c-316
308 -424 439 -521 632 -61 121 -82 195 -88 307 -11 203 66 368 222 475 77 53
147 73 270 77 138 5 243 -19 425 -100 162 -71 166 -72 195 -53 28 19 31 44 11
84 -19 37 -45 183 -52 294 -11 167 40 422 124 617 63 144 125 236 236 347 90
89 112 106 206 151 128 63 217 83 358 84 276 1 543 -118 745 -330 74 -78 105
-89 132 -47 22 33 9 59 -71 141 -164 167 -378 283 -604 328 -99 20 -229 27
-310 17z m491 -3150 c137 -14 460 -66 529 -86 65 -19 124 -48 150 -74 19 -19
20 -36 20 -406 0 -364 -1 -386 -17 -379 -41 15 -226 55 -323 69 -540 78 -1441
73 -1761 -10 -31 -7 -59 -14 -62 -14 -11 0 -18 138 -19 370 -1 279 4 301 69
344 108 72 485 161 798 189 94 8 521 6 616 -3z m-156 -940 c105 -6 259 -17
342 -25 255 -25 498 -74 475 -97 -15 -15 -184 -46 -330 -60 -176 -17 -900 -17
-1107 0 -304 25 -531 60 -630 95 l-40 15 27 10 c64 26 253 51 493 65 126 8
599 6 770 -3z"/>
<path d="M3602 4533 c-66 -39 -94 -62 -98 -79 -8 -31 20 -64 52 -64 22 0 157
75 197 108 34 30 8 93 -39 91 -10 0 -61 -25 -112 -56z"/>
<path d="M3622 4234 c-25 -17 -30 -65 -9 -82 7 -6 65 -20 130 -33 138 -25 167
-20 167 30 0 16 -6 36 -14 44 -8 7 -61 21 -118 31 -56 10 -110 20 -118 22 -9
2 -26 -3 -38 -12z"/>
</g>
</svg>
