<?xml version="1.0" encoding="us-ascii" standalone="no"?><svg xmlns="http://www.w3.org/2000/svg" xmlns:xlink="http://www.w3.org/1999/xlink" contentStyleType="text/css" height="721px" preserveAspectRatio="none" style="width:720px;height:721px;background:#FFFFFF;" version="1.1" viewBox="0 0 720 721" width="720px" zoomAndPan="magnify"><defs/><g><text fill="#000000" font-family="sans-serif" font-size="14" font-weight="bold" lengthAdjust="spacing" textLength="93" x="306.5" y="22.9951">sfcookbook</text><!--class doctrine_migration_versions--><g id="elem_doctrine_migration_versions"><rect codeLine="7" fill="#F1F1F1" height="91.1875" id="doctrine_migration_versions" rx="2.5" ry="2.5" style="stroke:#181818;stroke-width:0.5;" width="210" x="7" y="76.7969"/><text fill="#000000" font-family="sans-serif" font-size="14" lengthAdjust="spacing" textLength="204" x="10" y="94.792">doctrine_migration_versions</text><line style="stroke:#181818;stroke-width:0.5;" x1="8" x2="216" y1="103.0938" y2="103.0938"/><ellipse cx="18" cy="116.7422" fill="#000000" rx="3" ry="3" style="stroke:#000000;stroke-width:1.0;"/><text fill="#000000" font-family="sans-serif" font-size="14" lengthAdjust="spacing" textLength="103" x="27" y="120.0889">version: string</text><line style="stroke:#181818;stroke-width:1.0;" x1="8" x2="216" y1="127.3906" y2="127.3906"/><text fill="#000000" font-family="sans-serif" font-size="14" lengthAdjust="spacing" textLength="165" x="13" y="144.3857">executed_at: datetime</text><text fill="#000000" font-family="sans-serif" font-size="14" lengthAdjust="spacing" textLength="174" x="13" y="160.6826">execution_time: integer</text></g><!--class favorite_recipes--><g id="elem_favorite_recipes"><rect codeLine="13" fill="#F1F1F1" height="91.1875" id="favorite_recipes" rx="2.5" ry="2.5" style="stroke:#181818;stroke-width:0.5;" width="150" x="252" y="76.7969"/><text fill="#000000" font-family="sans-serif" font-size="14" lengthAdjust="spacing" textLength="117" x="268.5" y="94.792">favorite_recipes</text><line style="stroke:#181818;stroke-width:0.5;" x1="253" x2="401" y1="103.0938" y2="103.0938"/><ellipse cx="263" cy="116.7422" fill="#000000" rx="3" ry="3" style="stroke:#000000;stroke-width:1.0;"/><text fill="#000000" font-family="sans-serif" font-size="14" lengthAdjust="spacing" textLength="75" x="272" y="120.0889">id: integer</text><line style="stroke:#181818;stroke-width:1.0;" x1="253" x2="401" y1="127.3906" y2="127.3906"/><text fill="#000000" font-family="sans-serif" font-size="14" lengthAdjust="spacing" textLength="112" x="258" y="144.3857">user_id: integer</text><text fill="#000000" font-family="sans-serif" font-size="14" lengthAdjust="spacing" textLength="128" x="258" y="160.6826">recipe_id: integer</text></g><!--class messenger_messages--><g id="elem_messenger_messages"><rect codeLine="19" fill="#F1F1F1" height="156.375" id="messenger_messages" rx="2.5" ry="2.5" style="stroke:#181818;stroke-width:0.5;" width="276" x="437" y="44.2969"/><text fill="#000000" font-family="sans-serif" font-size="14" lengthAdjust="spacing" textLength="156" x="497" y="62.292">messenger_messages</text><line style="stroke:#181818;stroke-width:0.5;" x1="438" x2="712" y1="70.5938" y2="70.5938"/><ellipse cx="448" cy="84.2422" fill="#000000" rx="3" ry="3" style="stroke:#000000;stroke-width:1.0;"/><text fill="#000000" font-family="sans-serif" font-size="14" lengthAdjust="spacing" textLength="65" x="457" y="87.5889">id: bigint</text><line style="stroke:#181818;stroke-width:1.0;" x1="438" x2="712" y1="94.8906" y2="94.8906"/><ellipse cx="448" cy="108.5391" fill="#000000" rx="3" ry="3" style="stroke:#000000;stroke-width:1.0;"/><text fill="#000000" font-family="sans-serif" font-size="14" lengthAdjust="spacing" textLength="76" x="457" y="111.8857">body: text</text><ellipse cx="448" cy="124.8359" fill="#000000" rx="3" ry="3" style="stroke:#000000;stroke-width:1.0;"/><text fill="#000000" font-family="sans-serif" font-size="14" lengthAdjust="spacing" textLength="97" x="457" y="128.1826">headers: text</text><ellipse cx="448" cy="141.1328" fill="#000000" rx="3" ry="3" style="stroke:#000000;stroke-width:1.0;"/><text fill="#000000" font-family="sans-serif" font-size="14" lengthAdjust="spacing" textLength="141" x="457" y="144.4795">queue_name: string</text><ellipse cx="448" cy="157.4297" fill="#000000" rx="3" ry="3" style="stroke:#000000;stroke-width:1.0;"/><text fill="#000000" font-family="sans-serif" font-size="14" lengthAdjust="spacing" textLength="239" x="457" y="160.7764">created_at: datetime_immutable</text><ellipse cx="448" cy="173.7266" fill="#000000" rx="3" ry="3" style="stroke:#000000;stroke-width:1.0;"/><text fill="#000000" font-family="sans-serif" font-size="14" lengthAdjust="spacing" textLength="246" x="457" y="177.0732">available_at: datetime_immutable</text><text fill="#000000" font-family="sans-serif" font-size="14" lengthAdjust="spacing" textLength="250" x="457" y="193.3701">delivered_at: datetime_immutable</text></g><!--class recipes--><g id="elem_recipes"><rect codeLine="29" fill="#F1F1F1" height="221.5625" id="recipes" rx="2.5" ry="2.5" style="stroke:#181818;stroke-width:0.5;" width="180" x="165" y="260.2969"/><text fill="#000000" font-family="sans-serif" font-size="14" lengthAdjust="spacing" textLength="53" x="228.5" y="278.292">recipes</text><line style="stroke:#181818;stroke-width:0.5;" x1="166" x2="344" y1="286.5938" y2="286.5938"/><ellipse cx="176" cy="300.2422" fill="#000000" rx="3" ry="3" style="stroke:#000000;stroke-width:1.0;"/><text fill="#000000" font-family="sans-serif" font-size="14" lengthAdjust="spacing" textLength="75" x="185" y="303.5889">id: integer</text><line style="stroke:#181818;stroke-width:1.0;" x1="166" x2="344" y1="310.8906" y2="310.8906"/><text fill="#000000" font-family="sans-serif" font-size="14" lengthAdjust="spacing" textLength="112" x="185" y="327.8857">user_id: integer</text><ellipse cx="176" cy="340.8359" fill="#000000" rx="3" ry="3" style="stroke:#000000;stroke-width:1.0;"/><text fill="#000000" font-family="sans-serif" font-size="14" lengthAdjust="spacing" textLength="82" x="185" y="344.1826">title: string</text><ellipse cx="176" cy="357.1328" fill="#000000" rx="3" ry="3" style="stroke:#000000;stroke-width:1.0;"/><text fill="#000000" font-family="sans-serif" font-size="14" lengthAdjust="spacing" textLength="133" x="185" y="360.4795">description: string</text><ellipse cx="176" cy="373.4297" fill="#000000" rx="3" ry="3" style="stroke:#000000;stroke-width:1.0;"/><text fill="#000000" font-family="sans-serif" font-size="14" lengthAdjust="spacing" textLength="133" x="185" y="376.7764">ingredients: string</text><ellipse cx="176" cy="389.7266" fill="#000000" rx="3" ry="3" style="stroke:#000000;stroke-width:1.0;"/><text fill="#000000" font-family="sans-serif" font-size="14" lengthAdjust="spacing" textLength="136" x="185" y="393.0732">instructions: string</text><ellipse cx="176" cy="406.0234" fill="#000000" rx="3" ry="3" style="stroke:#000000;stroke-width:1.0;"/><text fill="#000000" font-family="sans-serif" font-size="14" lengthAdjust="spacing" textLength="85" x="185" y="409.3701">level: string</text><ellipse cx="176" cy="422.3203" fill="#000000" rx="3" ry="3" style="stroke:#000000;stroke-width:1.0;"/><text fill="#000000" font-family="sans-serif" font-size="14" lengthAdjust="spacing" textLength="103" x="185" y="425.667">budget: string</text><ellipse cx="176" cy="438.6172" fill="#000000" rx="3" ry="3" style="stroke:#000000;stroke-width:1.0;"/><text fill="#000000" font-family="sans-serif" font-size="14" lengthAdjust="spacing" textLength="100" x="185" y="441.9639">cuisine: string</text><text fill="#000000" font-family="sans-serif" font-size="14" lengthAdjust="spacing" textLength="95" x="185" y="458.2607">image: string</text><ellipse cx="176" cy="471.2109" fill="#000000" rx="3" ry="3" style="stroke:#000000;stroke-width:1.0;"/><text fill="#000000" font-family="sans-serif" font-size="14" lengthAdjust="spacing" textLength="154" x="185" y="474.5576">created_at: datetime</text></g><!--class user--><g id="elem_user"><rect codeLine="43" fill="#F1F1F1" height="172.6719" id="user" rx="2.5" ry="2.5" style="stroke:#181818;stroke-width:0.5;" width="265" x="193.5" y="542.2969"/><text fill="#000000" font-family="sans-serif" font-size="14" lengthAdjust="spacing" textLength="30" x="311" y="560.292">user</text><line style="stroke:#181818;stroke-width:0.5;" x1="194.5" x2="457.5" y1="568.5938" y2="568.5938"/><ellipse cx="204.5" cy="582.2422" fill="#000000" rx="3" ry="3" style="stroke:#000000;stroke-width:1.0;"/><text fill="#000000" font-family="sans-serif" font-size="14" lengthAdjust="spacing" textLength="75" x="213.5" y="585.5889">id: integer</text><line style="stroke:#181818;stroke-width:1.0;" x1="194.5" x2="457.5" y1="592.8906" y2="592.8906"/><ellipse cx="204.5" cy="606.5391" fill="#000000" rx="3" ry="3" style="stroke:#000000;stroke-width:1.0;"/><text fill="#000000" font-family="sans-serif" font-size="14" lengthAdjust="spacing" textLength="90" x="213.5" y="609.8857">email: string</text><ellipse cx="204.5" cy="622.8359" fill="#000000" rx="3" ry="3" style="stroke:#000000;stroke-width:1.0;"/><text fill="#000000" font-family="sans-serif" font-size="14" lengthAdjust="spacing" textLength="73" x="213.5" y="626.1826">roles: json</text><ellipse cx="204.5" cy="639.1328" fill="#000000" rx="3" ry="3" style="stroke:#000000;stroke-width:1.0;"/><text fill="#000000" font-family="sans-serif" font-size="14" lengthAdjust="spacing" textLength="118" x="213.5" y="642.4795">password: string</text><ellipse cx="204.5" cy="655.4297" fill="#000000" rx="3" ry="3" style="stroke:#000000;stroke-width:1.0;"/><text fill="#000000" font-family="sans-serif" font-size="14" lengthAdjust="spacing" textLength="121" x="213.5" y="658.7764">username: string</text><text fill="#000000" font-family="sans-serif" font-size="14" lengthAdjust="spacing" textLength="93" x="213.5" y="675.0732">about: string</text><text fill="#000000" font-family="sans-serif" font-size="14" lengthAdjust="spacing" textLength="96" x="213.5" y="691.3701">avatar: string</text><ellipse cx="204.5" cy="704.3203" fill="#000000" rx="3" ry="3" style="stroke:#000000;stroke-width:1.0;"/><text fill="#000000" font-family="sans-serif" font-size="14" lengthAdjust="spacing" textLength="239" x="213.5" y="707.667">created_at: datetime_immutable</text></g><!--link favorite_recipes to recipes--><g id="link_favorite_recipes_recipes"><path codeLine="54" d="M298.5,185.9669 C298.5,211.9409 298.5,212.6909 298.5,245.2069 " fill="none" id="favorite_recipes-recipes" style="stroke:#181818;stroke-width:1.0;"/><line style="stroke:#181818;stroke-width:1.0;" x1="298.5" x2="292.5" y1="175.9669" y2="167.9669"/><line style="stroke:#181818;stroke-width:1.0;" x1="298.5" x2="304.5" y1="175.9669" y2="167.9669"/><line style="stroke:#181818;stroke-width:1.0;" x1="298.5" x2="298.5" y1="175.9669" y2="167.9669"/><ellipse cx="298.5" cy="181.9669" fill="none" rx="4" ry="4" style="stroke:#181818;stroke-width:1.0;"/><line style="stroke:#181818;stroke-width:1.0;" x1="298.5" x2="298.5" y1="249.2069" y2="260.2069"/><ellipse cx="298.5" cy="249.2069" fill="none" rx="4" ry="4" style="stroke:#181818;stroke-width:1.0;"/><line style="stroke:#181818;stroke-width:1.0;" x1="302.5" x2="294.5" y1="256.2069" y2="256.2069"/></g><!--link favorite_recipes to user--><g id="link_favorite_recipes_user"><path codeLine="55" d="M373.5,186.1389 C373.5,270.5169 373.5,418.6699 373.5,526.9659 " fill="none" id="favorite_recipes-user" style="stroke:#181818;stroke-width:1.0;"/><line style="stroke:#181818;stroke-width:1.0;" x1="373.5" x2="367.5" y1="176.1389" y2="168.1389"/><line style="stroke:#181818;stroke-width:1.0;" x1="373.5" x2="379.5" y1="176.1389" y2="168.1389"/><line style="stroke:#181818;stroke-width:1.0;" x1="373.5" x2="373.5" y1="176.1389" y2="168.1389"/><ellipse cx="373.5" cy="182.1389" fill="none" rx="4" ry="4" style="stroke:#181818;stroke-width:1.0;"/><line style="stroke:#181818;stroke-width:1.0;" x1="373.5" x2="373.5" y1="530.9659" y2="541.9659"/><ellipse cx="373.5" cy="530.9659" fill="none" rx="4" ry="4" style="stroke:#181818;stroke-width:1.0;"/><line style="stroke:#181818;stroke-width:1.0;" x1="377.5" x2="369.5" y1="537.9659" y2="537.9659"/></g><!--link recipes to user--><g id="link_recipes_user"><path codeLine="56" d="M269.25,500.3689 C269.25,520.3779 269.25,507.9679 269.25,527.1559 " fill="none" id="recipes-user" style="stroke:#181818;stroke-width:1.0;"/><line style="stroke:#181818;stroke-width:1.0;" x1="269.25" x2="263.25" y1="490.3689" y2="482.3689"/><line style="stroke:#181818;stroke-width:1.0;" x1="269.25" x2="275.25" y1="490.3689" y2="482.3689"/><line style="stroke:#181818;stroke-width:1.0;" x1="269.25" x2="269.25" y1="490.3689" y2="482.3689"/><ellipse cx="269.25" cy="496.3689" fill="none" rx="4" ry="4" style="stroke:#181818;stroke-width:1.0;"/><line style="stroke:#181818;stroke-width:1.0;" x1="269.25" x2="269.25" y1="531.1559" y2="542.1559"/><ellipse cx="269.25" cy="531.1559" fill="none" rx="4" ry="4" style="stroke:#181818;stroke-width:1.0;"/><line style="stroke:#181818;stroke-width:1.0;" x1="273.25" x2="265.25" y1="538.1559" y2="538.1559"/></g><!--SRC=[bL9DRzGm5BpxLpokaLOg1ovxvKh51OcZvSJJvD7O3lPBw0hsl_FSThVUqXLmYE8PZ-TzJkn128iSA23qoCLCbHeu3pDCkUUukEm2tNByEBjIlhANYTv_k6dkFd74byC2-fnbIaPOPb2v6rAwx_KpxsH20DcO8gn1LC61V1eawqCRUCnEE4MxQNZz5_ffEde6UofLDfhTpX0UCAm2RvtioJk1SC29hWuLxucZO4GsnrEiExUbp0ARCV22fm3iNvJLV2t8jYNfINt1dIq3Ia5KojQJ6nlJdaULLy-E-kGFUn8yY889pcjLP_nznGeRNStvkSgEXWptkaJB8QpYUfr8HsvpFDVpDGbvpApjksvohkA_-j7HusIRN3tAa7cHTavg54UDpHgYNB1wN8UgRUaP6-O6zwiV8Mq_LYww9cU6E6Yt_zAmbmfh5M-Lr-dMQnyRdvncQ6RVIegA5jtr7odxHb2jBeP5ha-hD71pulA_p_9e_bZCOzhjqg_JNAxUrrJC6znl]--></g></svg>